<?xml version="1.0" encoding="UTF-8" standalone="no"?>
<!-- Created with Inkscape (http://www.inkscape.org/) -->

<svg
   xmlns:dc="http://purl.org/dc/elements/1.1/"
   xmlns:cc="http://creativecommons.org/ns#"
   xmlns:rdf="http://www.w3.org/1999/02/22-rdf-syntax-ns#"
   xmlns:svg="http://www.w3.org/2000/svg"
   xmlns="http://www.w3.org/2000/svg"
   xmlns:sodipodi="http://sodipodi.sourceforge.net/DTD/sodipodi-0.dtd"
   xmlns:inkscape="http://www.inkscape.org/namespaces/inkscape"
   width="744.09448819"
   height="1052.3622047"
   id="svg2"
   version="1.1"
   inkscape:version="0.48.1 "
   sodipodi:docname="New document 1">
  <defs
     id="defs4">
    <inkscape:path-effect
       is_visible="true"
       id="path-effect3121"
       effect="spiro" />
    <inkscape:path-effect
       effect="spiro"
       id="path-effect3117"
       is_visible="true" />
  </defs>
  <sodipodi:namedview
     id="base"
     pagecolor="#ffffff"
     bordercolor="#666666"
     borderopacity="1.0"
     inkscape:pageopacity="0.0"
     inkscape:pageshadow="2"
     inkscape:zoom="2.8"
     inkscape:cx="348.01198"
     inkscape:cy="691.85324"
     inkscape:document-units="px"
     inkscape:current-layer="layer1"
     showgrid="false"
     showguides="true"
     inkscape:guide-bbox="true"
     inkscape:window-width="1366"
     inkscape:window-height="706"
     inkscape:window-x="-8"
     inkscape:window-y="-8"
     inkscape:window-maximized="0" />
  <metadata
     id="metadata7">
    <rdf:RDF>
      <cc:Work
         rdf:about="">
        <dc:format>image/svg+xml</dc:format>
        <dc:type
           rdf:resource="http://purl.org/dc/dcmitype/StillImage" />
        <dc:title></dc:title>
      </cc:Work>
    </rdf:RDF>
  </metadata>
  <g
     inkscape:label="Layer 1"
     inkscape:groupmode="layer"
     id="layer1">
    <g
       transform="matrix(1.362193,0,0,1.6158301,-125.76538,-250.63235)"
       style="font-size:72px;font-style:normal;font-weight:normal;line-height:125%;letter-spacing:0px;word-spacing:0px;fill:#000000;fill-opacity:1;stroke:none;font-family:Sans"
       id="flowRoot2985">
      <path
         d="m 334.04687,403.94254 c -1.06532,-1.08515 0.77852,-14.23743 0.81836,-21.3616 0.0563,-10.06167 -0.81836,-30.17746 -0.81836,-30.17746 0.72229,-0.90471 4.36427,-0.16849 6.9961,0 0,0 5.63974,7.89237 8.33469,11.68235 4.95709,6.9713 13.26216,18.9428 14.28624,19.71767 0.54003,0.40861 1.01395,-2.30684 0.89514,-14.66541 -0.0781,-8.12493 -1.73076,-16.4477 -0.70975,-16.73461 5.2693,-0.70321 7.20203,0 10.80305,0 0,0 -0.52168,21.43916 -0.97194,36.86191 -0.26456,9.06189 1.88621,14.62331 1.23412,14.89818 -2.33274,0.002 -5.26701,0.6408 -7.25827,-0.22103 -1.14488,0 -9.2491,-9.09097 -16.10173,-20.49745 -6.85263,-11.40648 -6.77412,-9.79424 -7.45275,-9.07336 -0.67863,0.72088 -0.23681,9.42474 -0.33238,11.99349 -0.23557,6.33195 1.55737,17.26527 0.80906,17.79835 -0.74832,0.53308 -9.46625,0.86412 -10.53157,-0.22103 z"
         id="path3136"
         inkscape:connector-curvature="0"
         sodipodi:nodetypes="caccsssccscczzszzc" />
    </g>
    <path
       style="fill:none;stroke:#000000;stroke-width:1px;stroke-linecap:butt;stroke-linejoin:miter;stroke-opacity:1"
       d="m 293.66471,406.56833 c 9.00152,1.57281 18.0761,2.72738 27.18467,3.45874 12.92536,1.03782 25.91914,1.22283 38.86881,0.5534 -1.63551,0.69364 -2.92216,2.16194 -3.39503,3.87438 -0.47287,1.71243 -0.12201,3.63292 0.9258,5.06753 1.00906,1.38155 2.58564,2.26936 4.23335,2.72971 1.6477,0.46035 3.37755,0.52892 5.08835,0.53536 9.73398,0.0367 19.35857,-1.83966 28.9528,-3.48363 9.12802,-1.56408 18.40141,-2.95475 26.91903,-6.5903 1.10053,-0.46974 2.19634,-0.98241 3.14027,-1.71783 0.94392,-0.73541 1.73448,-1.71736 2.04896,-2.87188 0.24618,-0.90379 0.18828,-1.87882 -0.106,-2.76811 -0.29428,-0.88929 -0.81835,-1.69419 -1.46935,-2.36771 -1.30199,-1.34706 -3.06644,-2.14989 -4.84776,-2.73008 -5.26886,-1.71612 -11.0848,-1.70552 -16.34737,0.0298 6.28285,-3.10368 11.40391,-8.49571 14.17979,-14.93011 2.77589,-6.4344 3.18433,-13.85951 1.13094,-20.55956 -1.59024,-5.18882 -4.62812,-9.92571 -8.6806,-13.53543 -4.05249,-3.60972 -9.10776,-6.08176 -14.44522,-7.06374 2.82011,-4.65274 4.02429,-10.26439 3.36137,-15.66454 -0.66291,-5.40015 -3.18863,-10.55391 -7.05038,-14.3864 -3.75286,-3.72442 -8.74258,-6.18089 -13.98291,-6.88386 -5.24033,-0.70297 -10.70105,0.3516 -15.3028,2.95528 -2.09566,-6.88983 -6.45887,-13.06943 -12.25019,-17.34988 -5.21052,-3.85117 -11.5986,-6.16566 -18.07754,-6.23208 -6.47894,-0.0664 -13.00948,2.17353 -17.88656,6.43911 -5.6811,4.96879 -8.86309,12.4206 -9.50449,19.94073 -0.6414,7.52013 1.09503,15.10111 4.02458,22.05679 1.43106,3.39778 3.1466,6.6757 5.12277,9.78819 -3.835,1.8715 -7.18547,4.7256 -9.64286,8.21429 -2.84234,4.03518 -4.46779,8.87995 -4.86726,13.7995 -0.39948,4.91956 0.40528,9.90725 2.11177,14.53861 2.81176,7.63105 8.11277,14.32201 14.89834,18.80475 -4.4419,-0.34658 -8.94355,0.0864 -13.23795,1.27335 -3.9373,1.08823 -7.69911,2.80879 -11.09733,5.07565 l 0,-3e-5"
       id="path3115"
       inkscape:path-effect="#path-effect3117"
       inkscape:original-d="m 293.66471,406.56833 c 0.58085,1.65631 13.05569,2.79343 27.18467,3.45874 15.42779,0.72646 32.82781,0.89037 38.86881,0.5534 4.06402,1.22866 -8.04226,-2.09808 -2.46923,8.94191 1.17537,2.32837 4.57095,3.21146 9.3217,3.26507 7.43637,0.0839 18.19315,-1.86456 28.9528,-3.48363 10.68495,-1.60784 20.97932,-3.9399 26.91903,-6.5903 3.26354,-1.45624 5.21246,-3.00859 5.18923,-4.58971 -0.0637,-4.33905 -0.55438,-8.93265 -6.42311,-7.8659 -5.4312,0.98723 -16.34737,0.0298 -16.34737,0.0298 0,0 19.39903,-8.97567 15.31073,-35.48967 -3.57578,-23.19018 -23.12582,-20.59917 -23.12582,-20.59917 0,0 10.11908,-19.45714 -3.68901,-30.05094 -23.49802,-18.02808 -29.28571,-3.92858 -29.28571,-3.92858 0,0 -2.33824,-10.26274 -12.25019,-17.34988 -7.77728,-5.56083 -21.04096,-10.12746 -35.9641,0.20703 -14.9777,10.37227 -12.33089,30.94893 -5.47991,41.99752 6.12913,9.88447 5.12277,9.78819 5.12277,9.78819 0,0 -5.61081,2.25967 -9.64286,8.21429 -5.82521,8.6028 -6.36722,20.8859 -2.75549,28.33811 4.58139,9.45295 14.89834,18.80475 14.89834,18.80475 0,0 -6.80955,0.29294 -13.23795,1.27335 -6.17306,0.94148 -11.99464,2.51691 -11.09733,5.07565 z"
       inkscape:connector-curvature="0"
       sodipodi:nodetypes="sscsssssscscscssscsscss" />
    <path
       style="fill:#dec600;fill-opacity:1;stroke:none"
       d="m 496.77066,402.99732 c -1.54781,-0.72703 -2.37873,-1.52733 -2.91275,-2.80541 -0.94171,-2.25384 -0.54143,-3.87583 1.43285,-5.80605 0.85391,-0.83485 1.42103,-1.64946 1.26026,-1.81023 -0.16077,-0.16076 -7.8721,-0.36042 -17.13629,-0.44368 -16.53777,-0.14862 -24.87827,-0.7057 -38.8148,-2.59254 -8.17683,-1.10704 -8.42706,-1.25789 -4.87439,-2.93858 4.66574,-2.20725 9.95701,-3.33907 15.68806,-3.35571 l 5.09623,-0.0148 -1.76776,-1.52991 c -0.97227,-0.84145 -3.08069,-2.67442 -4.68536,-4.07326 -7.60318,-6.62789 -12.55529,-18.47056 -11.81261,-28.24912 0.66341,-8.73488 5.56642,-16.83706 12.58363,-20.79437 1.04172,-0.58747 1.89403,-1.24356 1.89403,-1.45797 0,-0.21442 -0.66456,-1.51696 -1.47681,-2.89453 -2.12731,-3.60793 -4.95238,-10.21291 -6.15436,-14.38882 -1.43531,-4.98659 -1.81078,-14.03587 -0.78276,-18.86551 2.83061,-13.29812 14.0189,-22.04688 27.10175,-21.1924 2.36124,0.15422 5.55221,0.70171 7.09105,1.21665 9.14343,3.05963 17.15977,10.74733 20.44735,19.60909 0.50881,1.37151 0.95362,2.54355 0.98847,2.60454 0.0349,0.061 1.75599,-0.53806 3.82473,-1.33123 5.0319,-1.92927 8.51524,-2.296 12.97521,-1.36607 7.85246,1.63728 13.64152,6.12358 17.13981,13.28271 1.89647,3.88104 1.93061,4.05362 1.93061,9.75929 0,5.46091 -0.0988,6.0319 -1.65084,9.54501 -0.90796,2.05516 -1.58982,3.78308 -1.51523,3.83983 0.0746,0.0567 1.27203,0.37981 2.66099,0.7179 8.94017,2.17616 17.47208,10.22637 20.3831,19.23229 0.31427,0.97227 0.79471,3.53089 1.06764,5.68583 1.32813,10.48641 -4.1201,21.88431 -13.11444,27.43595 -2.01154,1.24158 -2.87207,2.06522 -2.6802,2.56526 0.15545,0.40507 0.61642,0.60842 1.02438,0.45187 0.40797,-0.15655 2.26881,-0.52157 4.13522,-0.81115 8.11663,-1.25934 17.21604,2.29132 17.21604,6.71783 0,5.00239 -9.8087,8.21044 -40.65864,13.29788 -5.27416,0.86976 -10.80057,1.40978 -15.90991,1.55465 -7.07,0.20046 -8.03854,0.12339 -9.99426,-0.79523 l 0,0 z m -17.08072,-18.06303 c 0.88832,-0.25391 0.934,-0.65767 0.63872,-5.64587 -1.50792,-25.474 -1.70114,-41.83426 -0.50814,-43.02725 0.79783,-0.79784 2.53371,1.88621 8.51026,13.15864 5.67803,10.70942 9.6168,17.40478 14.26213,24.24366 7.46685,10.99272 8.85411,12.00663 15.56703,11.37758 l 3.85789,-0.36152 -0.27209,-1.59368 c -0.14965,-0.87653 -0.65367,-5.1166 -1.12005,-9.42238 -0.78607,-7.25724 -0.7926,-10.18818 -0.0894,-40.15356 0.4172,-17.77869 0.59663,-32.50182 0.39874,-32.71809 -0.19788,-0.21626 -3.63757,-0.3299 -7.64374,-0.25253 l -7.28396,0.14066 -0.16655,2.77792 c -0.0916,1.52786 0.0975,6.07354 0.4202,10.10153 0.65678,8.19776 0.71844,34.68754 0.0847,36.40063 -0.36504,0.9868 -0.68448,0.67599 -2.95336,-2.8736 -1.39923,-2.18904 -8.27099,-13.55457 -15.27058,-25.25672 l -12.72654,-21.27666 -4.01145,-0.34992 c -2.2063,-0.19246 -4.49768,-0.1956 -5.09195,-0.007 -1.01812,0.32314 -1.06234,0.56569 -0.76585,4.20145 0.74072,9.08347 0.98746,49.46732 0.36318,59.44068 -0.89278,14.26276 -0.93252,19.72443 -0.14926,20.51443 1.20254,1.21288 10.39989,1.59633 13.95006,0.58159 l 0,0 z"
       id="path3138"
       inkscape:connector-curvature="0" />
  </g>
</svg>
